<?xml version="1.0" standalone="no"?><!DOCTYPE svg PUBLIC "-//W3C//DTD SVG 1.1//EN" "http://www.w3.org/Graphics/SVG/1.1/DTD/svg11.dtd"><svg t="1678096525720" class="icon" viewBox="0 0 1061 1024" version="1.1" xmlns="http://www.w3.org/2000/svg" p-id="10656" xmlns:xlink="http://www.w3.org/1999/xlink" width="207.2265625" height="200"><path d="M872.296296 549.925926v-77.558519h189.62963L568.888889 15.17037a56.888889 56.888889 0 0 0-75.851852 0L0 472.367407h151.703704v417.185186a56.888889 56.888889 0 0 0 56.888889 56.888888h322.37037V625.777778a75.851852 75.851852 0 0 1 75.851852-75.851852z" p-id="10657" fill="#0586c3"></path><path d="M910.222222 606.814815H625.777778a37.925926 37.925926 0 0 0-37.925926 37.925926v341.333333a37.925926 37.925926 0 0 0 37.925926 37.925926h284.444444a37.925926 37.925926 0 0 0 37.925926-37.925926V644.740741a37.925926 37.925926 0 0 0-37.925926-37.925926zM701.62963 967.111111h-56.888889v-56.888889h56.888889z m0-94.814815h-56.888889v-56.888889h56.888889z m94.814814 94.814815h-56.888888v-56.888889h56.888888z m0-94.814815h-56.888888v-56.888889h56.888888z m94.814815 94.814815h-56.888889v-151.703704h56.888889z m0-189.62963H644.740741v-113.777777h246.518518z" p-id="10658" fill="#0586c3"></path></svg>