<?xml version="1.0" standalone="no"?><!DOCTYPE svg PUBLIC "-//W3C//DTD SVG 1.1//EN" "http://www.w3.org/Graphics/SVG/1.1/DTD/svg11.dtd"><svg t="1678096477387" class="icon" viewBox="0 0 1024 1024" version="1.1" xmlns="http://www.w3.org/2000/svg" p-id="10222" xmlns:xlink="http://www.w3.org/1999/xlink" width="200" height="200"><path d="M512.512 978.432l-460.8-624.128L208.384 36.352h608.256l156.672 317.952-460.8 624.128zM70.656 352.768l441.856 598.528 441.856-598.528-147.968-300.032H218.624L70.656 352.768z" fill="#0586c3" p-id="10223"></path><path d="M60.928 345.088h902.656v16.384H60.928z" fill="#0586c3" p-id="10224"></path><path d="M363.008 357.376L202.752 40.96l14.336-7.168 153.088 301.568L517.12 40.96l14.848 0.512 137.728 292.864 137.728-300.544 14.848 6.656-144.896 316.416h-14.848l-138.24-293.376-146.944 293.376z" fill="#0586c3" p-id="10225"></path><path d="M512 998.912L360.448 347.648l15.872-4.096 136.704 587.264 151.04-587.264 15.872 4.096z" fill="#0586c3" p-id="10226"></path></svg>